<?xml version="1.0" encoding="UTF-8"?>
<svg width="128px" height="128px" viewBox="0 0 128 128" version="1.1" xmlns="http://www.w3.org/2000/svg">
    <!-- Generator: Sketch 53.2 (72643) - https://sketchapp.com -->
    <title>prominado_logo</title>
    <desc>Created with Sketch.</desc>
    <g id="Page-1" stroke="none" stroke-width="1" fill="none" fill-rule="evenodd">
        <g id="prominado_logo" fill="#FFFFFF" fill-rule="nonzero">
            <g id="prominado">
                <g id="mark-2">
                    <g id="mark">
                        <polyline id="Fill-10"
                                  points="27.2920575 86.2209338 15.600753 92.8277085 15.600753 106.03906 27.2920575 99.4333843 27.2920575 86.2209338"></polyline>
                        <polyline id="Fill-11"
                                  points="46.8033814 75.1957277 46.8033814 75.1957277 35.113199 81.8014038 35.113199 95.0138541 46.8033814 88.4081786 46.8033814 123.671041 58.4935632 117.064266 58.4935632 68.5900522 46.8033814 75.1957277"></polyline>
                        <polyline id="Fill-12"
                                  points="97.5173331 37.7005798 109.207516 31.0938053 109.207516 17.8824535 97.5173331 24.4881294 97.5173331 37.7005798"></polyline>
                        <polyline id="Fill-13"
                                  points="78.0060099 48.7257859 78.0060099 48.7257859 89.6961917 42.1201098 89.6961917 28.9076595 78.0060099 35.5133354 78.0060099 0.250472994 66.3147053 6.85614893 66.3147053 55.3314618 78.0060099 48.7257859"></polyline>
                        <polyline id="Fill-14"
                                  points="66.3147053 103.852914 66.3147053 117.065365 78.0060099 123.671041 78.0060099 110.45859 66.3147053 103.852914"></polyline>
                        <polyline id="Fill-15"
                                  points="66.3147053 81.8014038 66.3147053 95.0138541 78.0060099 101.61953 78.0060099 88.4081786 109.207516 106.03906 109.207516 92.8277085 66.3147053 68.5900522 66.3147053 81.8014038"></polyline>
                        <polyline id="Fill-16"
                                  points="58.4935632 20.0685993 58.4935632 6.85614893 46.8033814 0.250472994 46.8033814 13.4629234 58.4935632 20.0685993"></polyline>
                        <polyline id="Fill-17"
                                  points="58.4935632 42.1190112 58.4935632 28.9076595 46.8033814 22.3019835 46.8033814 35.5133354 15.600753 17.8813549 15.600753 31.0938053 58.4935632 55.3314618 58.4935632 42.1190112"></polyline>
                        <polyline id="Fill-18"
                                  points="101.427904 79.5921882 113.118086 86.1978637 124.809391 79.5921882 113.118086 72.986512 101.427904 79.5921882"></polyline>
                        <polyline id="Fill-19"
                                  points="81.9154579 68.5669821 81.9165805 68.5669821 93.6067622 75.1726576 105.296945 68.5669821 93.6067622 61.9602074 124.809391 44.3293258 113.118086 37.7236496 81.9154579 55.3545318 70.2252758 61.9602074 81.9154579 68.5669821"></polyline>
                        <polyline id="Fill-21"
                                  points="23.3814868 44.3293258 11.6901822 37.7236496 0 44.3293258 11.6901822 50.9350013 23.3814868 44.3293258"></polyline>
                        <polyline id="Fill-22"
                                  points="42.8928106 55.3545318 42.8928106 55.3545318 31.2026283 48.7488557 19.5113237 55.3545318 31.2015059 61.9602074 0 79.5921882 11.6901822 86.1978637 54.5841152 61.9602074 42.8928106 55.3545318"></polyline>
                    </g>
                </g>
            </g>
        </g>
    </g>
</svg>