<?xml version="1.0" standalone="no"?>
<!DOCTYPE svg PUBLIC "-//W3C//DTD SVG 20010904//EN"
        "http://www.w3.org/TR/2001/REC-SVG-20010904/DTD/svg10.dtd">
<svg version="1.0" xmlns="http://www.w3.org/2000/svg"
     width="260.000000pt" height="260.000000pt" viewBox="0 0 260.000000 260.000000"
     preserveAspectRatio="xMidYMid meet">
    <metadata>
        Created by potrace 1.11, written by Peter Selinger 2001-2013
    </metadata>
    <g transform="translate(0.000000,260.000000) scale(0.100000,-0.100000)"
       fill="#000000" stroke="none">
        <path d="M1150 2593 c-322 -49 -549 -161 -766 -377 -263 -264 -388 -575 -379
-946 2 -80 6 -156 9 -170 3 -14 11 -50 17 -80 29 -141 100 -307 190 -445 100
-152 303 -334 474 -426 272 -145 619 -186 923 -108 117 29 251 84 343 140 127
77 198 137 343 292 36 38 128 182 162 255 99 208 134 372 129 597 -4 156 -7
182 -40 310 -40 152 -126 330 -218 450 -99 128 -260 268 -395 345 -125 70
-320 139 -447 157 -41 6 -314 11 -345 6z m315 -104 c192 -26 408 -117 565
-238 81 -62 205 -196 263 -283 108 -162 169 -321 197 -513 9 -60 6 -327 -3
-342 -3 -5 -8 -29 -12 -53 -16 -110 -87 -282 -170 -411 -58 -90 -67 -101 -165
-199 -177 -178 -410 -297 -655 -335 -86 -14 -316 -14 -375 -1 -14 3 -50 11
-80 17 -250 52 -519 226 -681 442 -123 164 -193 322 -234 532 -13 66 -14 293
0 377 79 511 477 913 990 1001 94 16 261 19 360 6z"/>
        <path d="M510 1310 l0 -551 107 3 107 3 1 180 0 180 175 5 c165 5 178 7 225
32 185 98 252 317 156 507 -29 55 -101 125 -162 158 l-54 28 -277 3 -278 4 0
-552z m518 345 c103 -62 108 -255 7 -321 -21 -14 -52 -17 -161 -19 -74 0 -138
1 -142 4 -4 4 -8 83 -8 176 l0 170 56 5 c101 9 219 2 248 -15z"/>
        <path d="M1617 1566 c-119 -40 -185 -119 -191 -230 -4 -72 20 -126 71 -160 21
-15 109 -49 196 -77 166 -53 197 -72 197 -120 0 -33 -44 -78 -79 -81 -115 -6
-198 14 -291 71 l-48 30 -36 -60 c-20 -33 -36 -64 -36 -69 0 -12 91 -68 140
-85 218 -78 441 -38 516 91 34 59 42 140 19 200 -28 74 -100 116 -295 169 -52
15 -110 36 -128 47 -30 18 -33 24 -30 61 2 34 9 45 38 65 31 21 43 23 100 19
63 -5 147 -36 196 -72 20 -15 23 -13 62 47 l42 63 -23 18 c-106 85 -290 117
-420 73z"/>
    </g>
</svg>
