<?xml version="1.0" encoding="UTF-8"?>
<svg width="128px" height="128px" viewBox="0 0 128 128" version="1.1" xmlns="http://www.w3.org/2000/svg">
    <!-- Generator: Sketch 53.2 (72643) - https://sketchapp.com -->
    <title>cetera_logo</title>
    <desc>Created with Sketch.</desc>
    <g id="Page-1" stroke="none" stroke-width="1" fill="none" fill-rule="evenodd">
        <g id="Group">
            <rect id="Rectangle" x="0" y="0" width="128" height="128"></rect>
            <g id="cetera_logo-2" transform="translate(0.000000, 6.000000)" fill="#FFFFFF" fill-rule="nonzero">
                <g id="cetera_logo">
                    <path d="M16.4810868,6.67414049 C25.5456846,4.71115809 34.6102825,1.9629824 43.2628534,1.77635684e-15 C44.0869075,4.31856145 45.322989,8.6371233 46.9710976,12.9556847 C47.7951521,15.7038604 48.2071791,18.4520361 49.4432607,21.9854047 C49.4432607,22.7705976 50.6793422,25.5187733 50.2673152,25.9113695 C49.8552882,26.3039661 46.5590706,26.6965628 46.1470435,26.6965628 C43.2628534,27.4817557 40.3786628,27.8743523 37.0824456,29.0521418 C32.5501469,29.8373347 28.0178477,31.4077209 23.485549,32.5855104 C21.425413,23.9483871 18.9532499,15.3112638 16.4810868,6.67414049"
                          id="Shape-path"></path>
                    <path d="M9.88865197,37.6892651 C16.8931142,36.118879 23.8975761,34.1558962 30.4900108,32.5855104 C31.7260924,37.6892651 33.786228,42.4004232 34.6102825,47.8967742 C35.0223096,48.6819671 35.434337,50.6449499 35.434337,51.4301428 C35.8463641,53.0005289 35.0223096,52.6079323 33.374201,53.0005289 C30.4900108,53.7857218 28.0178477,54.1783185 25.1336576,54.9635113 C22.2494675,55.7487042 19.7773044,56.1413009 17.3051413,56.5338975 C15.6570327,56.9264937 15.2450056,57.3190904 14.0089241,56.1413009 C13.5968966,55.356108 13.1848696,53.3931252 13.1848696,52.6079323 C12.3608151,47.5041775 10.7127065,42.7930195 9.88865197,37.6892651"
                          id="Shape-path"></path>
                    <path d="M4.12027169,63.9932313 C7.82851634,63.208038 11.948788,62.0302485 15.6570327,60.8524589 C16.4810868,60.8524589 16.8931142,60.4598627 17.7171683,60.4598627 C19.3652773,60.0672661 19.3652773,59.6746694 19.7773044,61.2450556 C20.1893314,62.8154418 20.6013589,65.1710208 21.0133859,66.7414066 C21.425413,68.3117927 21.83744,70.2747751 22.2494675,71.8451613 C22.2494675,72.2377579 23.0735215,73.8081437 22.6614945,74.593337 L19.3652773,75.3785299 C16.4810868,76.5563194 12.7728425,77.3415123 8.65257084,78.5193018 C6.59243479,73.8081437 5.76838028,68.7043894 4.12027169,63.9932313"
                          id="Shape-path"></path>
                    <path d="M0,86.3712322 C1.23608155,85.9786356 3.29621719,85.5860393 4.94432619,85.5860393 C5.76838028,85.5860393 9.06459788,84.4082498 9.88865197,84.800846 C10.7127065,85.1934427 10.7127065,88.3342146 10.7127065,89.1194079 C11.1247335,90.6897937 11.536761,92.2601798 11.948788,94.2231622 C8.65257084,95.0083555 5.76838028,95.4009517 2.06013605,96.9713379 C2.06013605,95.4009517 0.412027045,87.1564251 0,86.3712322"
                          id="Shape-path"></path>
                    <path d="M53.5635324,15.7038604 C62.6281303,13.740878 71.6927282,10.9927023 79.9332715,9.02971954 L83.2294891,21.9854047 C84.0535432,25.1261766 84.4655707,27.4817557 85.2896248,31.0151242 C85.2896248,31.8003171 86.5257063,34.5484928 86.1136793,34.9410894 C85.7016522,35.7262823 82.4054346,35.7262823 81.9934076,35.7262823 C78.69719,36.5114756 76.2250273,36.9040718 72.5167827,38.474458 C67.9844835,39.2596509 63.4521848,40.4374404 58.9198856,42.0078266 C58.0958315,32.9781066 55.6236684,24.3409837 53.5635324,15.7038604"
                          id="Shape-path"></path>
                    <path d="M46.5590706,46.7189847 C53.5635324,45.1485985 60.5679946,43.1856161 67.1604294,41.6152299 C68.808538,48.2893708 70.8686737,54.9635113 72.5167827,61.2450556 C72.5167827,61.2450556 53.5635324,66.3488103 51.9154238,66.7414066 L46.5590706,46.7189847"
                          id="Shape-path"></path>
                    <path d="M40.7906903,72.6303542 C46.1470435,71.8451613 50.6793422,69.8821789 56.0356955,68.7043894 C56.85975,72.2377579 58.0958315,76.1637227 59.3319131,79.6970913 C60.1559672,82.445267 60.9800217,83.2304599 58.5078586,84.0156532 C56.85975,84.4082498 54.7996139,84.800846 52.7394783,85.1934427 C51.0913697,85.5860393 49.0312337,85.9786356 47.3831251,86.3712322 C46.5590706,86.7638289 45.7350165,87.1564251 45.322989,85.9786356 C44.910962,85.1934427 44.4989349,84.4082498 44.4989349,82.8378636 C42.8508259,80.0896879 42.0267718,76.5563194 40.7906903,72.6303542"
                          id="Shape-path"></path>
                    <path d="M36.6704186,94.6157589 C39.9666358,93.830566 42.8508259,93.0453727 46.5590706,91.8675832 L47.3831251,96.186145 C47.7951521,96.9713379 49.0312337,100.504706 48.6192066,101.289899 C48.2071791,102.075093 44.910962,102.075093 44.0869075,102.075093 C42.4387989,102.467689 40.7906903,102.860286 38.7305542,103.252882 C38.3185272,101.289899 37.9065001,98.1491274 36.6704186,94.6157589"
                          id="Shape-path"></path>
                    <path d="M90.233951,24.73358 C94.7662497,23.9483871 99.2985489,22.7705976 103.830848,21.2002114 C107.127065,20.4150185 109.599228,20.0224219 113.307473,18.4520361 C114.131527,18.4520361 117.015717,17.2742466 117.427745,17.6668428 C117.839772,18.0594395 118.251799,21.2002114 118.251799,21.5928081 C118.663826,24.73358 119.48788,27.4817557 120.723962,31.0151242 C121.548016,35.3336857 122.784098,39.6522475 124.432206,43.970809 C119.899907,44.7560023 115.367609,45.9337918 110.83531,47.5041775 C107.539092,48.2893708 105.066929,48.6819671 101.358684,50.2523532 C100.53463,50.2523532 97.6504403,51.4301428 97.2384128,51.0375461 C96.8263858,50.6449499 96.4143587,47.5041775 96.4143587,47.1115813 C95.5903042,43.970809 95.1782772,41.6152299 93.5301686,38.0818614 C92.7061141,32.9781066 91.8820596,28.6595452 90.233951,24.73358"
                          id="Shape-path"></path>
                    <path d="M83.2294891,55.7487042 C86.9377338,54.9635113 90.233951,54.1783185 93.5301686,52.6079323 C95.1782772,52.2153356 97.2384128,51.8227394 98.8865218,51.4301428 C99.7105759,51.0375461 103.418821,49.8597566 104.242875,50.2523532 C105.066929,50.6449499 105.066929,54.5709147 105.478957,55.356108 C105.890984,56.9264937 106.303011,58.8894765 106.715038,60.4598627 C107.127065,62.0302485 107.539092,63.6006346 107.951119,65.563617 C108.363147,66.3488103 109.599228,69.8821789 109.187201,70.6673718 C108.775174,71.0599684 104.654902,71.4525646 103.830848,71.8451613 C102.182739,72.2377579 100.122603,72.6303542 98.4744943,73.0229508 C96.8263858,73.4155475 95.1782772,73.8081437 93.1181411,74.2007403 C92.294087,74.2007403 88.1738153,75.7711265 87.7617879,75.3785299 C87.3497608,74.9859332 86.9377338,71.0599684 86.5257063,70.2747751 C86.1136793,68.7043894 85.7016522,66.7414066 85.2896248,65.1710208 C85.2896248,62.0302485 83.6415162,58.8894765 83.2294891,55.7487042"
                          id="Shape-path"></path>
                    <path d="M77.4611084,81.6600741 C82.4054346,80.4822846 87.7617879,79.6970913 92.7061141,77.7341089 C94.3542227,82.8378636 95.5903042,87.5490217 96.8263858,92.2601798 C91.4700325,93.0453727 86.9377338,95.4009517 81.5813805,96.186145 C81.5813805,96.186145 77.8731359,82.8378636 77.4611084,81.6600741"
                          id="Shape-path"></path>
                    <path d="M73.3408367,103.645478 C76.6370543,102.860286 79.5212445,102.075093 83.2294891,100.897303 C83.6415162,102.075093 84.0535432,104.038075 84.0535432,105.608461 C84.0535432,106.393654 85.2896248,109.534426 84.8775977,110.319619 C84.4655707,111.104812 81.1693531,111.104812 80.345299,111.104812 C78.69719,111.497409 77.0490814,111.890005 74.9889458,112.282602 C74.9889458,109.927023 74.5769183,106.786251 73.3408367,103.645478"
                          id="Shape-path"></path>
                </g>
            </g>
        </g>
    </g>
</svg>